<svg xmlns="http://www.w3.org/2000/svg" xmlns:xlink="http://www.w3.org/1999/xlink" width="126" height="42" viewBox="0 0 126 42">
  <defs>
    <clipPath id="clip-Zeichenfläche_1">
      <rect width="126" height="42"/>
    </clipPath>
  </defs>
  <g id="Zeichenfläche_1" data-name="Zeichenfläche – 1" clip-path="url(#clip-Zeichenfläche_1)">
    <rect width="126" height="42" fill="none"/>
    <g id="Gruppe_718" data-name="Gruppe 718" transform="translate(-65 -122.223)">
      <g id="Gruppe_717" data-name="Gruppe 717" transform="translate(21.84 66.345)">
        <path id="Pfad_2" data-name="Pfad 2" d="M63.319,56.878l-7.476,7.476h9.89v7.417h0L73.208,64.3V56.878Z" transform="translate(1.962 0)" fill="#001a26"/>
        <path id="Pfad_3" data-name="Pfad 3" d="M43.161,80.254H57.216V96.266L67.694,85.788V69.776H53.64Z" transform="translate(0 0.842)" fill="#001a26"/>
        <g id="Gruppe_1" data-name="Gruppe 1" transform="translate(73.136 67.213)">
          <path id="Pfad_4" data-name="Pfad 4" d="M96.47,71.667a5.855,5.855,0,0,1-.581,2.671A4.519,4.519,0,0,1,94.1,76.2l3.263,6.369H92.827l-2.614-5.5H87.888v5.5H83.8V66.616h6.3a9.57,9.57,0,0,1,3.084.425A5.212,5.212,0,0,1,95.14,68.17a3.956,3.956,0,0,1,1.029,1.62A5.97,5.97,0,0,1,96.47,71.667Zm-8.582,2.08h2.1a2.609,2.609,0,0,0,1.822-.5,1.9,1.9,0,0,0,.524-1.441,1.746,1.746,0,0,0-.559-1.386,2.917,2.917,0,0,0-1.921-.492H87.888Z" transform="translate(-66.849 -66.214)" fill="#001a26"/>
          <path id="Pfad_5" data-name="Pfad 5" d="M107.469,66.616l5.543,15.957h-4.448l-.916-3.062h-5.386l-.894,3.062H97.055L102.6,66.616Zm-4.157,9.477H106.6l-1.632-5.5Z" transform="translate(-64.798 -66.214)" fill="#001a26"/>
          <path id="Pfad_6" data-name="Pfad 6" d="M126.469,76.794a7.811,7.811,0,0,1-.559,2.458,5.753,5.753,0,0,1-1.341,1.978,6.206,6.206,0,0,1-2.169,1.319,9.738,9.738,0,0,1-6.39-.124,6.262,6.262,0,0,1-2.369-1.7,7.251,7.251,0,0,1-1.409-2.626,12.392,12.392,0,0,1,.012-6.793,7.307,7.307,0,0,1,1.453-2.671,6.676,6.676,0,0,1,2.413-1.744,8.46,8.46,0,0,1,3.386-.626,6.148,6.148,0,0,1,6.727,5.632l-4.269.492a5.987,5.987,0,0,0-.29-.961,2.457,2.457,0,0,0-.48-.771,2.181,2.181,0,0,0-.749-.514,2.744,2.744,0,0,0-1.072-.191q-3.064,0-3.062,4.671a9.261,9.261,0,0,0,.224,2.2,4.07,4.07,0,0,0,.636,1.464,2.417,2.417,0,0,0,.983.8,3.16,3.16,0,0,0,1.263.246q2.347,0,2.682-2.547Z" transform="translate(-62.522 -66.268)" fill="#001a26"/>
          <path id="Pfad_7" data-name="Pfad 7" d="M135.508,72.651l5.655,9.922h-4.694l-3.821-6.905-1.587,1.766v5.14h-4.292V66.616h4.292V72.4l4.849-5.789h4.671Z" transform="translate(-60.201 -66.214)" fill="#001a26"/>
          <path id="Pfad_8" data-name="Pfad 8" d="M144.4,77.375a2.374,2.374,0,0,0,.827,1.665,3.229,3.229,0,0,0,2.033.547,2.977,2.977,0,0,0,1.71-.4,1.313,1.313,0,0,0,.569-1.14,1.241,1.241,0,0,0-.38-.928,2.829,2.829,0,0,0-1.386-.569l-2.122-.4a7.921,7.921,0,0,1-3.934-1.654,4.14,4.14,0,0,1-1.274-3.219,4.356,4.356,0,0,1,1.71-3.742,7.768,7.768,0,0,1,4.7-1.263,9.637,9.637,0,0,1,2.972.4,5.878,5.878,0,0,1,2.011,1.073,4.492,4.492,0,0,1,1.184,1.554,6.113,6.113,0,0,1,.514,1.843l-4.156.425a2.426,2.426,0,0,0-.771-1.431,2.777,2.777,0,0,0-1.777-.469,2.845,2.845,0,0,0-1.62.368,1.155,1.155,0,0,0-.524,1,1.082,1.082,0,0,0,.424.894,3.218,3.218,0,0,0,1.364.514l2.167.424a7.49,7.49,0,0,1,4,1.8,4.366,4.366,0,0,1,1.184,3.14,5.511,5.511,0,0,1-.4,2.145,4.207,4.207,0,0,1-1.23,1.642,5.918,5.918,0,0,1-2.1,1.062,10.544,10.544,0,0,1-3,.379q-6.637-.045-6.972-5.653Z" transform="translate(-58.133 -66.268)" fill="#001a26"/>
          <path id="Pfad_9" data-name="Pfad 9" d="M72.763,66.616,69.12,70.259h5.4V82.573h4.291V70.259h4.6V66.616Z" transform="translate(-69.12 -66.214)" fill="#001a26"/>
        </g>
      </g>
    </g>
  </g>
</svg>
