<svg xmlns="http://www.w3.org/2000/svg" width="151.271" height="37.753" viewBox="0 0 151.271 37.753"><defs><style>.a{fill:#eb6b67;}.b{fill:#2a8ec2;}</style></defs><g transform="translate(-0.002)"><path class="a" d="M387.294,114.923v2.5c0,.592-.24.832-.832.832h-3.311a.779.779,0,0,1-.851-.851v-17.3a.846.846,0,0,1,.962-.943c.425.018.851,0,1.258,0a.774.774,0,0,1,.851.573c.148.351.278.7.407,1.054.055.129.074.2.2.055a6.919,6.919,0,0,1,4.088-2,6.668,6.668,0,0,1,3.7.462,6.156,6.156,0,0,1,2.9,2.664,9.911,9.911,0,0,1,1.221,3.81,11.7,11.7,0,0,1-.407,4.865,6.828,6.828,0,0,1-8.638,4.865A7.637,7.637,0,0,1,387.294,114.923Zm-.2-6.918c0,.721.019,1.443,0,2.146a.623.623,0,0,0,.3.573c.074.037.13.092.2.13a4.156,4.156,0,0,0,1.683.518,3.189,3.189,0,0,0,3.681-2.183,5.984,5.984,0,0,0,.055-3.773,3.224,3.224,0,0,0-.758-1.369,2.989,2.989,0,0,0-2.775-.869,2.954,2.954,0,0,0-2.368,2.738C387.091,106.617,387.091,107.32,387.091,108Z" transform="translate(-311.582 -80.499)"/><path class="a" d="M474.8,107.3a8.7,8.7,0,0,1,2.756-6.456,7.181,7.181,0,0,1,4.7-2A7.841,7.841,0,0,1,489.6,102.7a8.4,8.4,0,0,1,1.295,4.143,8.65,8.65,0,0,1-4.883,8.324,7.723,7.723,0,0,1-9.286-2.238,8.915,8.915,0,0,1-1.887-4.883C474.818,107.8,474.8,107.564,474.8,107.3Zm4.439-.333a5.689,5.689,0,0,0,.407,2.4,3.405,3.405,0,0,0,5.771.869,4.321,4.321,0,0,0,1.036-2.442,4.2,4.2,0,0,0-1.535-3.866,3.427,3.427,0,0,0-4.569.277A4.082,4.082,0,0,0,479.239,106.972Z" transform="translate(-386.973 -80.558)"/><path class="a" d="M155.1,109.544v4.791a.791.791,0,0,1-.888.906c-.37,0-.758-.018-1.128,0a.648.648,0,0,1-.684-.425c-.148-.333-.3-.666-.425-1-.111-.24-.092-.24-.277-.074a6.437,6.437,0,0,1-3.071,1.72,5.837,5.837,0,0,1-3.718-.3,4.8,4.8,0,0,1-2.812-3.718,6.162,6.162,0,0,1,.018-2.664,4.806,4.806,0,0,1,3.089-3.348,8.894,8.894,0,0,1,5.549-.111c.111.037.167.037.167-.111a4.507,4.507,0,0,0-.167-1.406,1.592,1.592,0,0,0-1.591-1.221,20.664,20.664,0,0,0-5.013.647.585.585,0,0,1-.74-.481c-.074-.3-.111-.592-.166-.888-.092-.536-.166-1.073-.259-1.591a.757.757,0,0,1,.555-.906,13.737,13.737,0,0,1,1.924-.425,21.272,21.272,0,0,1,3.9-.351,8.373,8.373,0,0,1,2.423.37,4.272,4.272,0,0,1,2.886,3.089,12.428,12.428,0,0,1,.407,3.4C155.1,106.824,155.1,108.193,155.1,109.544Zm-4.236-.018V108.6a.245.245,0,0,0-.185-.277,5.3,5.3,0,0,0-2.331-.388,2.162,2.162,0,0,0-2.127,2.386,1.984,1.984,0,0,0,2.368,1.85,3.646,3.646,0,0,0,2.09-1.276.743.743,0,0,0,.185-.518C150.848,110.08,150.866,109.8,150.866,109.525Z" transform="translate(-115.701 -80.355)"/><path class="a" d="M226.819,108.374c0-2.312.019-4.624,0-6.955a1.146,1.146,0,0,1,1.221-1.221c2.016.018,4.032,0,6.03,0a5.305,5.305,0,0,1,5.2,4.2,5.183,5.183,0,0,1-2.349,5.457c-.018.018-.037.018-.055.037-.407.259-.388.259-.167.684.777,1.443,1.572,2.9,2.349,4.347a1.08,1.08,0,0,1-.98,1.646h-2.146a1.089,1.089,0,0,1-1.054-.647c-.832-1.665-1.683-3.348-2.516-5.013a.3.3,0,0,0-.333-.2,6.817,6.817,0,0,1-.869,0c-.167,0-.2.055-.2.222V115.4a1.084,1.084,0,0,1-1.184,1.165h-1.776a1.094,1.094,0,0,1-1.184-1.2C226.819,113.035,226.819,110.7,226.819,108.374Zm5.734-4.236h-1.369c-.129,0-.2.018-.185.185v2.553c0,.148.037.185.185.185h2.645a1.527,1.527,0,0,0,1.443-1.535,1.464,1.464,0,0,0-1.461-1.387Z" transform="translate(-184.846 -81.664)"/><path class="a" d="M571.9,108.437v-7.011a1.048,1.048,0,0,1,1.165-1.147c2.127,0,4.254-.019,6.381.018a5.273,5.273,0,0,1,4.9,4.217,5.162,5.162,0,0,1-2.59,5.549c-.2.111-.2.2-.093.37.814,1.5,1.609,3,2.423,4.476a1.248,1.248,0,0,1,.148.925,1.049,1.049,0,0,1-1,.8c-.777.019-1.572.019-2.349,0a.982.982,0,0,1-.925-.61c-.832-1.665-1.683-3.348-2.516-5.013a.344.344,0,0,0-.388-.24,5.447,5.447,0,0,1-.777,0c-.185-.018-.259.037-.24.24.019,1.424,0,2.849,0,4.254a2.741,2.741,0,0,1-.018.388,1.083,1.083,0,0,1-1.073.98h-1.924a1.054,1.054,0,0,1-1.091-1.11C571.9,113.154,571.9,110.8,571.9,108.437Zm5.716-4.236h-1.35c-.148,0-.222.019-.222.2.019.851,0,1.683,0,2.534,0,.148.037.185.185.185h2.664a1.5,1.5,0,0,0,1.424-1.535,1.461,1.461,0,0,0-1.461-1.369C578.448,104.2,578.023,104.2,577.616,104.2Z" transform="translate(-466.112 -81.727)"/><path class="a" d="M5.81,115.806a10.541,10.541,0,0,1-4.384-.925,5.4,5.4,0,0,1-.888-.536.714.714,0,0,1-.259-1c.351-.684.684-1.369,1.036-2.072a.621.621,0,0,1,.925-.333,9.685,9.685,0,0,0,2.553.869,4.374,4.374,0,0,0,1.628.074.934.934,0,0,0,.851-.666,1.065,1.065,0,0,0-.333-1.11,4.451,4.451,0,0,0-1.165-.7c-.721-.314-1.461-.61-2.183-.943A6.677,6.677,0,0,1,.8,106.243a4.622,4.622,0,0,1,2.164-6.937,8.264,8.264,0,0,1,3.607-.5,10.6,10.6,0,0,1,3.219.647,5.4,5.4,0,0,1,1.128.573.9.9,0,0,1,.351,1.258c-.3.592-.573,1.184-.869,1.776a.777.777,0,0,1-1.147.407,9.681,9.681,0,0,0-2.257-.7,3.538,3.538,0,0,0-1.646-.018.868.868,0,0,0-.721.666.882.882,0,0,0,.444.962,11.328,11.328,0,0,0,1.813.814,14.818,14.818,0,0,1,3.33,1.683,4.726,4.726,0,0,1,2.016,3.145,4.588,4.588,0,0,1-2,4.643,7.327,7.327,0,0,1-3.5,1.147C6.439,115.806,6.125,115.825,5.81,115.806Z" transform="translate(0 -80.513)"/><path class="a" d="M657.418,110.955v5.235c0,.592-.222.851-.8.851-1.11.018-2.2.018-3.311,0a.764.764,0,0,1-.721-.8V105.628c0-.277,0-.277-.277-.277h-2.4c-.518,0-.832-.24-.851-.74a29.032,29.032,0,0,1,.018-3.108.726.726,0,0,1,.8-.7h10.285a.832.832,0,0,1,.869.462,1.033,1.033,0,0,1,.055.407v2.812a.762.762,0,0,1-.851.851h-2.571c-.185,0-.222.055-.222.24-.019,1.794-.019,3.589-.019,5.383Z" transform="translate(-528.971 -82.155)"/><path class="a" d="M308.733,111v-5.327c0-.185-.037-.259-.24-.24-.814.019-1.628,0-2.442,0a.755.755,0,0,1-.851-.851v-2.812a.759.759,0,0,1,.869-.869h10.192a1.137,1.137,0,0,1,.259.018.725.725,0,0,1,.7.8v2.923a.735.735,0,0,1-.814.8h-2.627c-.185,0-.24.056-.222.24v10.6c0,.592-.24.851-.851.851h-3.237a.8.8,0,0,1-.758-.777C308.733,114.57,308.733,112.775,308.733,111Z" transform="translate(-248.744 -82.236)"/><path class="a" d="M80.479,110.965V116.2c0,.592-.222.851-.814.869-1.091.018-2.183.018-3.293,0a.772.772,0,0,1-.74-.814v-10.6c0-.222-.037-.3-.277-.277-.814.018-1.609,0-2.423,0a.751.751,0,0,1-.832-.832v-2.812a.771.771,0,0,1,.888-.888h9.119a11.222,11.222,0,0,1,1.369.018.676.676,0,0,1,.629.7c0,1.036.019,2.053,0,3.089a.737.737,0,0,1-.814.721H80.7c-.2,0-.24.055-.24.24C80.5,107.395,80.479,109.189,80.479,110.965Z" transform="translate(-58.762 -82.183)"/><path class="b" d="M710.2,9.952a9.952,9.952,0,1,1,9.951,9.952A9.939,9.939,0,0,1,710.2,9.952Zm9.933,8.49a8.481,8.481,0,1,0-8.471-8.49A8.5,8.5,0,0,0,720.13,18.442Z" transform="translate(-578.827)"/><path class="b" d="M740.168,26.619a.679.679,0,0,1-.074.333c-1.295,3.422-2.608,6.863-3.9,10.285-.13.314-.314.481-.573.462q-.416-.028-.555-.555l-1.11-4.606a.3.3,0,0,0-.259-.259c-1.535-.37-3.089-.74-4.624-1.11-.425-.111-.629-.425-.481-.777a.694.694,0,0,1,.388-.333c1.683-.629,3.348-1.276,5.031-1.905,1.776-.684,3.57-1.35,5.346-2.035a.579.579,0,0,1,.74.166A.725.725,0,0,1,740.168,26.619Zm-4.421,8.675c.98-2.608,1.942-5.142,2.923-7.732-2.59.98-5.142,1.942-7.732,2.923,1.165.277,2.275.555,3.4.814a.707.707,0,0,1,.592.573C735.192,33,735.451,34.11,735.747,35.294Z" transform="translate(-593.777 -21.236)"/></g></svg>